/* Do NOT edit this file. It was generated automatically
** by bintoc from the file 'UpAndDown_rt.mid'.
*/
const unsigned char midiFileImage[] = {
    /*    0 */ 0x4D, 0x54, 0x68, 0x64, 0x00, 0x00, 0x00, 0x06, 
    /*    8 */ 0x00, 0x01, 0x00, 0x03, 0x00, 0xC0, 0x4D, 0x54, 
    /*   16 */ 0x72, 0x6B, 0x00, 0x00, 0x00, 0x3D, 0x00, 0xFF, 
    /*   24 */ 0x03, 0x05, 0x54, 0x69, 0x74, 0x6C, 0x65, 0x00, 
    /*   32 */ 0xFF, 0x02, 0x0A, 0x43, 0x6F, 0x6D, 0x70, 0x6F, 
    /*   40 */ 0x73, 0x65, 0x72, 0x20, 0x3A, 0x00, 0xFF, 0x01, 
    /*   48 */ 0x09, 0x52, 0x65, 0x6D, 0x61, 0x72, 0x6B, 0x73, 
    /*   56 */ 0x20, 0x3A, 0x00, 0xFF, 0x51, 0x03, 0x07, 0xA1, 
    /*   64 */ 0x20, 0x00, 0xFF, 0x58, 0x04, 0x04, 0x02, 0x18, 
    /*   72 */ 0x08, 0x00, 0xFF, 0x59, 0x02, 0x00, 0x00, 0x00, 
    /*   80 */ 0xFF, 0x2F, 0x00, 0x4D, 0x54, 0x72, 0x6B, 0x00, 
    /*   88 */ 0x00, 0x00, 0xBA, 0x00, 0xFF, 0x03, 0x06, 0x4D, 
    /*   96 */ 0x65, 0x6C, 0x6F, 0x64, 0x79, 0x00, 0xB0, 0x20, 
    /*  104 */ 0x00, 0x00, 0xB0, 0x00, 0x00, 0x00, 0xC0, 0x51, 
    /*  112 */ 0x00, 0xB0, 0x65, 0x00, 0x00, 0xB0, 0x64, 0x00, 
    /*  120 */ 0x00, 0xB0, 0x06, 0x18, 0x00, 0xB0, 0x07, 0x7F, 
    /*  128 */ 0x00, 0xE0, 0x00, 0x40, 0x00, 0xB0, 0x0A, 0x40, 
    /*  136 */ 0x00, 0x90, 0x59, 0x7F, 0x21, 0x80, 0x59, 0x7F, 
    /*  144 */ 0x00, 0x90, 0x54, 0x7F, 0x20, 0x80, 0x54, 0x7F, 
    /*  152 */ 0x00, 0x90, 0x51, 0x7F, 0x1F, 0x80, 0x51, 0x7F, 
    /*  160 */ 0x00, 0x90, 0x4D, 0x7F, 0x20, 0x80, 0x4D, 0x7F, 
    /*  168 */ 0x00, 0x90, 0x51, 0x7F, 0x21, 0x80, 0x51, 0x7F, 
    /*  176 */ 0x00, 0x90, 0x56, 0x7F, 0x1F, 0x80, 0x56, 0x7F, 
    /*  184 */ 0x00, 0x90, 0x5B, 0x7F, 0x20, 0x80, 0x5B, 0x7F, 
    /*  192 */ 0x00, 0x90, 0x56, 0x7F, 0x21, 0x80, 0x56, 0x7F, 
    /*  200 */ 0x00, 0x90, 0x51, 0x7F, 0x1F, 0x80, 0x51, 0x7F, 
    /*  208 */ 0x00, 0x90, 0x4D, 0x7F, 0x22, 0x80, 0x4D, 0x7F, 
    /*  216 */ 0x00, 0x90, 0x51, 0x7F, 0x1E, 0x80, 0x51, 0x7F, 
    /*  224 */ 0x00, 0x90, 0x54, 0x7F, 0x20, 0x80, 0x54, 0x7F, 
    /*  232 */ 0x00, 0x90, 0x59, 0x7F, 0x22, 0x80, 0x59, 0x7F, 
    /*  240 */ 0x00, 0x90, 0x54, 0x7F, 0x1E, 0x80, 0x54, 0x7F, 
    /*  248 */ 0x00, 0x90, 0x51, 0x7F, 0x20, 0x80, 0x51, 0x7F, 
    /*  256 */ 0x00, 0x90, 0x4D, 0x7F, 0x40, 0x80, 0x4D, 0x7F, 
    /*  264 */ 0x81, 0x62, 0xB0, 0x7B, 0x00, 0x00, 0xB0, 0x78, 
    /*  272 */ 0x00, 0x00, 0xFF, 0x2F, 0x00, 0x4D, 0x54, 0x72, 
    /*  280 */ 0x6B, 0x00, 0x00, 0x00, 0x68, 0x00, 0xFF, 0x03, 
    /*  288 */ 0x04, 0x42, 0x65, 0x6C, 0x6C, 0x00, 0xB2, 0x20, 
    /*  296 */ 0x00, 0x00, 0xB2, 0x00, 0x00, 0x00, 0xC2, 0x09, 
    /*  304 */ 0x00, 0xB2, 0x65, 0x00, 0x00, 0xB2, 0x64, 0x00, 
    /*  312 */ 0x00, 0xB2, 0x06, 0x18, 0x00, 0xB2, 0x07, 0x7F, 
    /*  320 */ 0x00, 0xE2, 0x00, 0x40, 0x00, 0xB2, 0x0A, 0x40, 
    /*  328 */ 0x00, 0x92, 0x51, 0x7F, 0x60, 0x82, 0x51, 0x7F, 
    /*  336 */ 0x00, 0x92, 0x59, 0x7F, 0x60, 0x82, 0x59, 0x7F, 
    /*  344 */ 0x00, 0x92, 0x53, 0x7F, 0x60, 0x82, 0x53, 0x7F, 
    /*  352 */ 0x00, 0x92, 0x59, 0x7F, 0x60, 0x82, 0x59, 0x7F, 
    /*  360 */ 0x00, 0x92, 0x51, 0x7F, 0x60, 0x82, 0x51, 0x7F, 
    /*  368 */ 0x00, 0x92, 0x59, 0x7F, 0x60, 0x82, 0x59, 0x7F, 
    /*  376 */ 0x81, 0x42, 0xB2, 0x7B, 0x00, 0x00, 0xB2, 0x78, 
    /*  384 */ 0x00, 0x00, 0xFF, 0x2F, 0x00
    };
const int midiFileImage_size = 389;
